<?xml version="1.0" encoding="UTF-8"?>
<svg width="24px" height="24px" viewBox="0 0 24 24" version="1.1" xmlns="http://www.w3.org/2000/svg">
    <g stroke="none" stroke-width="1" fill="none" fill-rule="evenodd">
        <path d="M20,8h-3V4H3C1.9,4,1,4.9,1,6v11h2c0,1.66,1.34,3,3,3s3-1.34,3-3h6c0,1.66,1.34,3,3,3s3-1.34,3-3h2v-5L20,8z M6,19.5 c-0.83,0-1.5-0.67-1.5-1.5s0.67-1.5,1.5-1.5s1.5,0.67,1.5,1.5S6.83,19.5,6,19.5z M18,19.5c-0.83,0-1.5-0.67-1.5-1.5 s0.67-1.5,1.5-1.5s1.5,0.67,1.5,1.5S18.83,19.5,18,19.5z M17,12V9.5h2.5l1.96,2.5H17z" fill="#000000"/>
    </g>
</svg>
