<?xml version="1.0" encoding="UTF-8"?>
<svg width="800px" height="203px" viewBox="0 0 800 203" version="1.1" xmlns="http://www.w3.org/2000/svg">
    <title>Wise (TransferWise) Logo</title>
    <g stroke="none" stroke-width="1" fill="none" fill-rule="evenodd">
        <path d="M122.184,201.92 C189.948,201.92 244.368,156.756 244.368,101.196 C244.368,45.636 189.948,0.472 122.184,0.472 C54.42,0.472 0,45.636 0,101.196 C0,156.756 54.42,201.92 122.184,201.92 Z" fill="#00B9FF"/>
        <path d="M122.184,0.472 C189.948,0.472 244.368,45.636 244.368,101.196 L122.184,101.196 L122.184,0.472 Z" fill="#00B9FF" opacity="0.65"/>
        <path d="M352.788,67.916 L352.788,155.956 L321.876,155.956 L321.876,67.916 L352.788,67.916 Z M321.876,32.956 L352.788,32.956 L352.788,55.876 L321.876,55.876 L321.876,32.956 Z" fill="#2E4369"/>
        <path d="M535.932,67.916 L535.932,155.956 L505.02,155.956 L505.02,67.916 L535.932,67.916 Z M505.02,32.956 L535.932,32.956 L535.932,55.876 L505.02,55.876 L505.02,32.956 Z" fill="#2E4369"/>
        <path d="M800,67.916 L800,155.956 L769.088,155.956 L769.088,67.916 L800,67.916 Z M769.088,32.956 L800,32.956 L800,55.876 L769.088,55.876 L769.088,32.956 Z" fill="#2E4369"/>
        <path d="M437.184,67.916 L437.184,76.796 C442.344,70.076 451.224,65.756 462.264,65.756 C482.184,65.756 493.224,81.116 493.224,99.716 L493.224,155.956 L462.312,155.956 L462.312,104.036 C462.312,93.836 458.832,87.116 448.632,87.116 C439.752,87.116 437.112,93.836 437.112,102.716 L437.112,155.956 L406.2,155.956 L406.2,67.916 L437.184,67.916 Z" fill="#2E4369"/>
        <path d="M620.328,67.916 L620.328,76.796 C625.488,70.076 634.368,65.756 645.408,65.756 C665.328,65.756 676.368,81.116 676.368,99.716 L676.368,155.956 L645.456,155.956 L645.456,104.036 C645.456,93.836 641.976,87.116 631.776,87.116 C622.896,87.116 620.256,93.836 620.256,102.716 L620.256,155.956 L589.344,155.956 L589.344,67.916 L620.328,67.916 Z" fill="#2E4369"/>
        <path d="M718.872,111.956 C718.872,133.316 734.232,137.636 746.112,137.636 C757.992,137.636 773.352,133.316 773.352,111.956 C773.352,90.596 757.992,86.276 746.112,86.276 C734.232,86.276 718.872,90.596 718.872,111.956 Z M687.96,111.956 C687.96,82.436 711.48,65.756 746.112,65.756 C780.744,65.756 804.264,82.436 804.264,111.956 C804.264,141.476 780.744,158.156 746.112,158.156 C711.48,158.156 687.96,141.476 687.96,111.956 Z" fill="#2E4369"/>
    </g>
</svg>
